<svg id="SvgjsSvg1186" width="622" height="605.5" xmlns="http://www.w3.org/2000/svg" version="1.1" xmlns:xlink="http://www.w3.org/1999/xlink" xmlns:svgjs="http://svgjs.com/svgjs"><defs id="SvgjsDefs1187"><marker id="SvgjsMarker1226" markerWidth="16" markerHeight="12" refX="16" refY="6" viewBox="0 0 16 12" orient="auto" markerUnits="userSpaceOnUse"><path id="SvgjsPath1227" d="M0,2 L14,6 L0,11 L0,2" fill="#323232" stroke="#323232" stroke-width="2"></path></marker><marker id="SvgjsMarker1230" markerWidth="16" markerHeight="12" refX="16" refY="6" viewBox="0 0 16 12" orient="auto" markerUnits="userSpaceOnUse"><path id="SvgjsPath1231" d="M0,2 L14,6 L0,11 L0,2" fill="#323232" stroke="#323232" stroke-width="2"></path></marker><marker id="SvgjsMarker1234" markerWidth="16" markerHeight="12" refX="16" refY="6" viewBox="0 0 16 12" orient="auto" markerUnits="userSpaceOnUse"><path id="SvgjsPath1235" d="M0,2 L14,6 L0,11 L0,2" fill="#323232" stroke="#323232" stroke-width="2"></path></marker><marker id="SvgjsMarker1238" markerWidth="16" markerHeight="12" refX="16" refY="6" viewBox="0 0 16 12" orient="auto" markerUnits="userSpaceOnUse"><path id="SvgjsPath1239" d="M0,2 L14,6 L0,11 L0,2" fill="#323232" stroke="#323232" stroke-width="2"></path></marker><marker id="SvgjsMarker1242" markerWidth="16" markerHeight="12" refX="16" refY="6" viewBox="0 0 16 12" orient="auto" markerUnits="userSpaceOnUse"><path id="SvgjsPath1243" d="M0,2 L14,6 L0,11 L0,2" fill="#323232" stroke="#323232" stroke-width="2"></path></marker><marker id="SvgjsMarker1246" markerWidth="16" markerHeight="12" refX="16" refY="6" viewBox="0 0 16 12" orient="auto" markerUnits="userSpaceOnUse"><path id="SvgjsPath1247" d="M0,2 L14,6 L0,11 L0,2" fill="#323232" stroke="#323232" stroke-width="2"></path></marker><marker id="SvgjsMarker1286" markerWidth="16" markerHeight="12" refX="16" refY="6" viewBox="0 0 16 12" orient="auto" markerUnits="userSpaceOnUse"><path id="SvgjsPath1287" d="M0,2 L14,6 L0,11 L0,2" fill="#ff3333" stroke="#ff3333" stroke-width="2"></path></marker><marker id="SvgjsMarker1294" markerWidth="16" markerHeight="12" refX="16" refY="6" viewBox="0 0 16 12" orient="auto" markerUnits="userSpaceOnUse"><path id="SvgjsPath1295" d="M0,2 L14,6 L0,11 L0,2" fill="#ff3333" stroke="#ff3333" stroke-width="2"></path></marker><marker id="SvgjsMarker1302" markerWidth="16" markerHeight="12" refX="16" refY="6" viewBox="0 0 16 12" orient="auto" markerUnits="userSpaceOnUse"><path id="SvgjsPath1303" d="M0,2 L14,6 L0,11 L0,2" fill="#ff3333" stroke="#ff3333" stroke-width="2"></path></marker><marker id="SvgjsMarker1310" markerWidth="16" markerHeight="12" refX="16" refY="6" viewBox="0 0 16 12" orient="auto" markerUnits="userSpaceOnUse"><path id="SvgjsPath1311" d="M0,2 L14,6 L0,11 L0,2" fill="#ff3333" stroke="#ff3333" stroke-width="2"></path></marker><marker id="SvgjsMarker1318" markerWidth="16" markerHeight="12" refX="16" refY="6" viewBox="0 0 16 12" orient="auto" markerUnits="userSpaceOnUse"><path id="SvgjsPath1319" d="M0,2 L14,6 L0,11 L0,2" fill="#ff3333" stroke="#ff3333" stroke-width="2"></path></marker><marker id="SvgjsMarker1332" markerWidth="16" markerHeight="12" refX="16" refY="6" viewBox="0 0 16 12" orient="auto" markerUnits="userSpaceOnUse"><path id="SvgjsPath1333" d="M0,2 L14,6 L0,11 L0,2" fill="#ff3333" stroke="#ff3333" stroke-width="2"></path></marker><marker id="SvgjsMarker1352" markerWidth="16" markerHeight="12" refX="16" refY="6" viewBox="0 0 16 12" orient="auto" markerUnits="userSpaceOnUse"><path id="SvgjsPath1353" d="M0,2 L14,6 L0,11 L0,2" fill="#ff3333" stroke="#ff3333" stroke-width="2"></path></marker><marker id="SvgjsMarker1360" markerWidth="16" markerHeight="12" refX="16" refY="6" viewBox="0 0 16 12" orient="auto" markerUnits="userSpaceOnUse"><path id="SvgjsPath1361" d="M0,2 L14,6 L0,11 L0,2" fill="#ff3333" stroke="#ff3333" stroke-width="2"></path></marker></defs><g id="SvgjsG1188" transform="translate(55,253)"><path id="SvgjsPath1189" d="M 0 0L 176 0L 176 35L 0 35Z" stroke="#323232" stroke-width="2" fill-opacity="1" fill="#ffffff"></path><g id="SvgjsG1190"><text id="SvgjsText1191" font-family="微软雅黑" text-anchor="middle" font-size="13px" width="132" fill="#323232" font-weight="400" align="middle" anchor="middle" family="微软雅黑" size="13px" weight="400" font-style="" y="7.55" transform="rotate(0)"><tspan id="SvgjsTspan1192" dy="16" x="88"><tspan id="SvgjsTspan1193" style="text-decoration:;">Function    Function()</tspan></tspan></text></g></g><g id="SvgjsG1194" transform="translate(55,400.5)"><path id="SvgjsPath1195" d="M 0 0L 176 0L 176 35L 0 35Z" stroke="#323232" stroke-width="2" fill-opacity="1" fill="#ffffff"></path><g id="SvgjsG1196"><text id="SvgjsText1197" font-family="微软雅黑" text-anchor="middle" font-size="13px" width="101" fill="#323232" font-weight="400" align="middle" anchor="middle" family="微软雅黑" size="13px" weight="400" font-style="" y="7.55" transform="rotate(0)"><tspan id="SvgjsTspan1198" dy="16" x="88"><tspan id="SvgjsTspan1199" style="text-decoration:;">Function    Fun()</tspan></tspan></text></g></g><g id="SvgjsG1200" transform="translate(55,115.5)"><path id="SvgjsPath1201" d="M 0 0L 176 0L 176 35L 0 35Z" stroke="#323232" stroke-width="2" fill-opacity="1" fill="#ffffff"></path><g id="SvgjsG1202"><text id="SvgjsText1203" font-family="微软雅黑" text-anchor="middle" font-size="13px" width="119" fill="#323232" font-weight="400" align="middle" anchor="middle" family="微软雅黑" size="13px" weight="400" font-style="" y="7.55" transform="rotate(0)"><tspan id="SvgjsTspan1204" dy="16" x="88"><tspan id="SvgjsTspan1205" style="text-decoration:;">Function    Object()</tspan></tspan></text></g></g><g id="SvgjsG1206" transform="translate(334,253)"><path id="SvgjsPath1207" d="M 0 0L 176 0L 176 35L 0 35Z" stroke="#323232" stroke-width="2" fill-opacity="1" fill="#ffffff"></path><g id="SvgjsG1208"><text id="SvgjsText1209" font-family="微软雅黑" text-anchor="middle" font-size="13px" width="119" fill="#323232" font-weight="400" align="middle" anchor="middle" family="微软雅黑" size="13px" weight="400" font-style="" y="7.55" transform="rotate(0)"><tspan id="SvgjsTspan1210" dy="16" x="88"><tspan id="SvgjsTspan1211" style="text-decoration:;">Function.prototype</tspan></tspan></text></g></g><g id="SvgjsG1212" transform="translate(334,115.5)"><path id="SvgjsPath1213" d="M 0 0L 176 0L 176 35L 0 35Z" stroke="#323232" stroke-width="2" fill-opacity="1" fill="#ffffff"></path><g id="SvgjsG1214"><text id="SvgjsText1215" font-family="微软雅黑" text-anchor="middle" font-size="13px" width="106" fill="#323232" font-weight="400" align="middle" anchor="middle" family="微软雅黑" size="13px" weight="400" font-style="" y="7.55" transform="rotate(0)"><tspan id="SvgjsTspan1216" dy="16" x="88"><tspan id="SvgjsTspan1217" style="text-decoration:;">Object.prototype</tspan></tspan></text></g></g><g id="SvgjsG1218" transform="translate(334,400.5)"><path id="SvgjsPath1219" d="M 0 0L 176 0L 176 35L 0 35Z" stroke="#323232" stroke-width="2" fill-opacity="1" fill="#ffffff"></path><g id="SvgjsG1220"><text id="SvgjsText1221" font-family="微软雅黑" text-anchor="middle" font-size="13px" width="88" fill="#323232" font-weight="400" align="middle" anchor="middle" family="微软雅黑" size="13px" weight="400" font-style="" y="7.55" transform="rotate(0)"><tspan id="SvgjsTspan1222" dy="16" x="88"><tspan id="SvgjsTspan1223" style="text-decoration:;">Fun.prototype</tspan></tspan></text></g></g><g id="SvgjsG1224"><path id="SvgjsPath1225" d="M422 150.5L422 180.5L143 180.5L143 150.5" stroke="#323232" stroke-width="2" fill="none" marker-end="url(#SvgjsMarker1226)"></path></g><g id="SvgjsG1228"><path id="SvgjsPath1229" d="M143 253L143 223L422 223L422 253" stroke="#323232" stroke-width="2" fill="none" marker-end="url(#SvgjsMarker1230)"></path></g><g id="SvgjsG1232"><path id="SvgjsPath1233" d="M422 288L422 318L143 318L143 288" stroke="#323232" stroke-width="2" fill="none" marker-end="url(#SvgjsMarker1234)"></path></g><g id="SvgjsG1236"><path id="SvgjsPath1237" d="M143 400.5L143 370.5L422 370.5L422 400.5" stroke="#323232" stroke-width="2" fill="none" marker-end="url(#SvgjsMarker1238)"></path></g><g id="SvgjsG1240"><path id="SvgjsPath1241" d="M422 435.5L422 465.5L143 465.5L143 435.5" stroke="#323232" stroke-width="2" fill="none" marker-end="url(#SvgjsMarker1242)"></path></g><g id="SvgjsG1244"><path id="SvgjsPath1245" d="M143 115.5L143 85.5L422 85.5L422 115.5" stroke="#323232" stroke-width="2" fill="none" marker-end="url(#SvgjsMarker1246)"></path></g><g id="SvgjsG1248" transform="translate(238,224)"><path id="SvgjsPath1249" d="M 0 0L 100 0L 100 20L 0 20Z" stroke="none" fill="none"></path><g id="SvgjsG1250"><text id="SvgjsText1251" font-family="微软雅黑" text-anchor="middle" font-size="13px" width="62" fill="#323232" font-weight="400" align="middle" anchor="middle" family="微软雅黑" size="13px" weight="400" font-style="" y="0.050000000000000044" transform="rotate(0)"><tspan id="SvgjsTspan1252" dy="16" x="50"><tspan id="SvgjsTspan1253" style="text-decoration:;">prototype</tspan></tspan></text></g></g><g id="SvgjsG1254" transform="translate(238,298)"><path id="SvgjsPath1255" d="M 0 0L 100 0L 100 20L 0 20Z" stroke="none" fill="none"></path><g id="SvgjsG1256"><text id="SvgjsText1257" font-family="微软雅黑" text-anchor="middle" font-size="13px" width="71" fill="#323232" font-weight="400" align="middle" anchor="middle" family="微软雅黑" size="13px" weight="400" font-style="" y="0.050000000000000044" transform="rotate(0)"><tspan id="SvgjsTspan1258" dy="16" x="50"><tspan id="SvgjsTspan1259" style="text-decoration:;">constructor</tspan></tspan></text></g></g><g id="SvgjsG1260" transform="translate(238,87)"><path id="SvgjsPath1261" d="M 0 0L 100 0L 100 20L 0 20Z" stroke="none" fill="none"></path><g id="SvgjsG1262"><text id="SvgjsText1263" font-family="微软雅黑" text-anchor="middle" font-size="13px" width="62" fill="#323232" font-weight="400" align="middle" anchor="middle" family="微软雅黑" size="13px" weight="400" font-style="" y="0.050000000000000044" transform="rotate(0)"><tspan id="SvgjsTspan1264" dy="16" x="50"><tspan id="SvgjsTspan1265" style="text-decoration:;">prototype</tspan></tspan></text></g></g><g id="SvgjsG1266" transform="translate(238,160)"><path id="SvgjsPath1267" d="M 0 0L 100 0L 100 20L 0 20Z" stroke="none" fill="none"></path><g id="SvgjsG1268"><text id="SvgjsText1269" font-family="微软雅黑" text-anchor="middle" font-size="13px" width="71" fill="#323232" font-weight="400" align="middle" anchor="middle" family="微软雅黑" size="13px" weight="400" font-style="" y="0.050000000000000044" transform="rotate(0)"><tspan id="SvgjsTspan1270" dy="16" x="50"><tspan id="SvgjsTspan1271" style="text-decoration:;">constructor</tspan></tspan></text></g></g><g id="SvgjsG1272" transform="translate(238,446)"><path id="SvgjsPath1273" d="M 0 0L 100 0L 100 20L 0 20Z" stroke="none" fill="none"></path><g id="SvgjsG1274"><text id="SvgjsText1275" font-family="微软雅黑" text-anchor="middle" font-size="13px" width="71" fill="#323232" font-weight="400" align="middle" anchor="middle" family="微软雅黑" size="13px" weight="400" font-style="" y="0.050000000000000044" transform="rotate(0)"><tspan id="SvgjsTspan1276" dy="16" x="50"><tspan id="SvgjsTspan1277" style="text-decoration:;">constructor</tspan></tspan></text></g></g><g id="SvgjsG1278" transform="translate(238,372)"><path id="SvgjsPath1279" d="M 0 0L 100 0L 100 20L 0 20Z" stroke="none" fill="none"></path><g id="SvgjsG1280"><text id="SvgjsText1281" font-family="微软雅黑" text-anchor="middle" font-size="13px" width="62" fill="#323232" font-weight="400" align="middle" anchor="middle" family="微软雅黑" size="13px" weight="400" font-style="" y="0.050000000000000044" transform="rotate(0)"><tspan id="SvgjsTspan1282" dy="16" x="50"><tspan id="SvgjsTspan1283" style="text-decoration:;">prototype</tspan></tspan></text></g></g><g id="SvgjsG1284"><path id="SvgjsPath1285" d="M143 400.5L143 344.25L422 344.25L422 288" stroke="#ff3333" stroke-width="2" fill="none" marker-end="url(#SvgjsMarker1286)"></path><rect id="SvgjsRect1288" width="52" height="16" x="256.5" y="336.25" fill="#ffffff"></rect><text id="SvgjsText1289" font-family="微软雅黑" text-anchor="middle" font-size="13px" width="52" fill="#ff3333" font-weight="400" align="top" anchor="middle" family="微软雅黑" size="13px" weight="400" font-style="" y="334.3" transform="rotate(0)"><tspan id="SvgjsTspan1290" dy="16" x="282.5"><tspan id="SvgjsTspan1291" style="text-decoration:;">[[proto]]</tspan></tspan></text></g><g id="SvgjsG1292"><path id="SvgjsPath1293" d="M510 270.5L540 270.5L540 133L510 133" stroke="#ff3333" stroke-width="2" fill="none" marker-end="url(#SvgjsMarker1294)"></path><rect id="SvgjsRect1296" width="52" height="16" x="514" y="193.75" fill="#ffffff"></rect><text id="SvgjsText1297" font-family="微软雅黑" text-anchor="middle" font-size="13px" width="52" fill="#ff3333" font-weight="400" align="top" anchor="middle" family="微软雅黑" size="13px" weight="400" font-style="" y="191.8" transform="rotate(0)"><tspan id="SvgjsTspan1298" dy="16" x="540"><tspan id="SvgjsTspan1299" style="text-decoration:;">[[proto]]</tspan></tspan></text></g><g id="SvgjsG1300"><path id="SvgjsPath1301" d="M231 270.5L282.5 270.5L282.5 270.5L334 270.5" stroke="#ff3333" stroke-width="2" fill="none" marker-end="url(#SvgjsMarker1302)"></path><rect id="SvgjsRect1304" width="52" height="16" x="256.5" y="262.5" fill="#ffffff"></rect><text id="SvgjsText1305" font-family="微软雅黑" text-anchor="middle" font-size="13px" width="52" fill="#ff3333" font-weight="400" align="top" anchor="middle" family="微软雅黑" size="13px" weight="400" font-style="" y="260.55" transform="rotate(0)"><tspan id="SvgjsTspan1306" dy="16" x="282.5"><tspan id="SvgjsTspan1307" style="text-decoration:;">[[proto]]</tspan></tspan></text></g><g id="SvgjsG1308"><path id="SvgjsPath1309" d="M55 133L25 133L25 204L488 204L488 253" stroke="#ff3333" stroke-width="2" fill="none" marker-end="url(#SvgjsMarker1310)"></path><rect id="SvgjsRect1312" width="52" height="16" x="230.49999999999994" y="196" fill="#ffffff"></rect><text id="SvgjsText1313" font-family="微软雅黑" text-anchor="middle" font-size="13px" width="52" fill="#ff3333" font-weight="400" align="top" anchor="middle" family="微软雅黑" size="13px" weight="400" font-style="" y="194.05" transform="rotate(0)"><tspan id="SvgjsTspan1314" dy="16" x="256.49999999999994"><tspan id="SvgjsTspan1315" style="text-decoration:;">[[proto]]</tspan></tspan></text></g><g id="SvgjsG1316"><path id="SvgjsPath1317" d="M510 133L541 133L541 45" stroke="#ff3333" stroke-width="2" fill="none" marker-end="url(#SvgjsMarker1318)"></path><rect id="SvgjsRect1320" width="52" height="16" x="515" y="85" fill="#ffffff"></rect><text id="SvgjsText1321" font-family="微软雅黑" text-anchor="middle" font-size="13px" width="52" fill="#ff3333" font-weight="400" align="top" anchor="middle" family="微软雅黑" size="13px" weight="400" font-style="" y="83.05" transform="rotate(0)"><tspan id="SvgjsTspan1322" dy="16" x="541"><tspan id="SvgjsTspan1323" style="text-decoration:;">[[proto]]</tspan></tspan></text></g><g id="SvgjsG1324" transform="translate(491,25)"><path id="SvgjsPath1325" d="M 0 0L 100 0L 100 20L 0 20Z" stroke="none" fill="none"></path><g id="SvgjsG1326"><text id="SvgjsText1327" font-family="微软雅黑" text-anchor="middle" font-size="13px" width="23" fill="#ff3333" font-weight="400" align="middle" anchor="middle" family="微软雅黑" size="13px" weight="400" font-style="" y="0.050000000000000044" transform="rotate(0)"><tspan id="SvgjsTspan1328" dy="16" x="50"><tspan id="SvgjsTspan1329" style="text-decoration:;">null</tspan></tspan></text></g></g><g id="SvgjsG1330"><path id="SvgjsPath1331" d="M510 418L581 418L581 133L510 133" stroke="#ff3333" stroke-width="2" fill="none" marker-end="url(#SvgjsMarker1332)"></path><rect id="SvgjsRect1334" width="52" height="16" x="555" y="267.5" fill="#ffffff"></rect><text id="SvgjsText1335" font-family="微软雅黑" text-anchor="middle" font-size="13px" width="52" fill="#ff3333" font-weight="400" align="top" anchor="middle" family="微软雅黑" size="13px" weight="400" font-style="" y="265.55" transform="rotate(0)"><tspan id="SvgjsTspan1336" dy="16" x="581"><tspan id="SvgjsTspan1337" style="text-decoration:;">[[proto]]</tspan></tspan></text></g><g id="SvgjsG1338" transform="translate(55,545.5)"><path id="SvgjsPath1339" d="M 0 0L 176 0L 176 35L 0 35Z" stroke="#323232" stroke-width="2" fill-opacity="1" fill="#ffffff"></path><g id="SvgjsG1340"><text id="SvgjsText1341" font-family="微软雅黑" text-anchor="middle" font-size="13px" width="123" fill="#323232" font-weight="400" align="middle" anchor="middle" family="微软雅黑" size="13px" weight="400" font-style="" y="7.55" transform="rotate(0)"><tspan id="SvgjsTspan1342" dy="16" x="88"><tspan id="SvgjsTspan1343" style="text-decoration:;">const a = new Fun()</tspan></tspan></text></g></g><g id="SvgjsG1344" transform="translate(334,545.5)"><path id="SvgjsPath1345" d="M 0 0L 176 0L 176 35L 0 35Z" stroke="#323232" stroke-width="2" fill-opacity="1" fill="#ffffff"></path><g id="SvgjsG1346"><text id="SvgjsText1347" font-family="微软雅黑" text-anchor="middle" font-size="13px" width="124" fill="#323232" font-weight="400" align="middle" anchor="middle" family="微软雅黑" size="13px" weight="400" font-style="" y="7.55" transform="rotate(0)"><tspan id="SvgjsTspan1348" dy="16" x="88"><tspan id="SvgjsTspan1349" style="text-decoration:;">const b = new Fun()</tspan></tspan></text></g></g><g id="SvgjsG1350"><path id="SvgjsPath1351" d="M143 545.5L143 490.25L442 490.25L442 435" stroke="#ff3333" stroke-width="2" fill="none" marker-end="url(#SvgjsMarker1352)"></path><rect id="SvgjsRect1354" width="52" height="16" x="266.5" y="482.25" fill="#ffffff"></rect><text id="SvgjsText1355" font-family="微软雅黑" text-anchor="middle" font-size="13px" width="52" fill="#ff3333" font-weight="400" align="top" anchor="middle" family="微软雅黑" size="13px" weight="400" font-style="" y="480.3" transform="rotate(0)"><tspan id="SvgjsTspan1356" dy="16" x="292.5"><tspan id="SvgjsTspan1357" style="text-decoration:;">[[proto]]</tspan></tspan></text></g><g id="SvgjsG1358"><path id="SvgjsPath1359" d="M510 563L540 563L540 470L491 470L491 440" stroke="#ff3333" stroke-width="2" fill="none" marker-end="url(#SvgjsMarker1360)"></path><rect id="SvgjsRect1362" width="52" height="16" x="514" y="484" fill="#ffffff"></rect><text id="SvgjsText1363" font-family="微软雅黑" text-anchor="middle" font-size="13px" width="52" fill="#ff3333" font-weight="400" align="top" anchor="middle" family="微软雅黑" size="13px" weight="400" font-style="" y="482.05" transform="rotate(0)"><tspan id="SvgjsTspan1364" dy="16" x="540"><tspan id="SvgjsTspan1365" style="text-decoration:;">[[proto]]</tspan></tspan></text></g></svg>